<svg width="100" height="79" viewBox="0 0 100 79" fill="none" xmlns="http://www.w3.org/2000/svg">
<path d="M26.75 25.2031C24.7708 25.2031 23.349 24.8958 22.4844 24.2812C21.6198 23.6562 21.1667 22.6302 21.125 21.2031C21.0312 18.8177 20.9844 16.375 20.9844 13.875C20.9844 11.3646 21.0312 8.92708 21.125 6.5625C21.1667 5.09375 21.6198 4.04688 22.4844 3.42188C23.349 2.79688 24.7552 2.48438 26.7031 2.48438C28.599 2.48438 29.9792 2.79167 30.8438 3.40625C31.7188 4.02083 32.1927 5.03646 32.2656 6.45312C32.3281 7.11979 32.3542 7.79688 32.3438 8.48438C32.3438 9.17188 32.3177 9.84896 32.2656 10.5156H30.0938C30.1458 9.80729 30.1719 9.07292 30.1719 8.3125C30.1823 7.54167 30.1562 6.80208 30.0938 6.09375C30.0521 5.5 29.7604 5.0625 29.2188 4.78125C28.6771 4.5 27.8385 4.35938 26.7031 4.35938C25.5469 4.35938 24.6927 4.5 24.1406 4.78125C23.599 5.0625 23.3177 5.5 23.2969 6.09375C23.2135 8.66667 23.1719 11.25 23.1719 13.8438C23.1823 16.4271 23.224 19 23.2969 21.5625C23.3177 22.1667 23.5938 22.6146 24.125 22.9062C24.6562 23.1875 25.5312 23.3281 26.75 23.3281C27.9583 23.3281 28.849 23.1875 29.4219 22.9062C29.9948 22.6146 30.3021 22.1667 30.3438 21.5625C30.3646 20.1458 30.3646 18.7344 30.3438 17.3281H26.6719V15.3594H32.4531C32.5052 16.0885 32.5365 16.9375 32.5469 17.9062C32.5573 18.875 32.5312 19.974 32.4688 21.2031C32.4375 22.6302 31.9688 23.6562 31.0625 24.2812C30.1667 24.8958 28.7292 25.2031 26.75 25.2031ZM37.0469 25H35.0312V9.79688H37.0469V11.2188H37.4844C37.7552 10.6979 38.1146 10.2969 38.5625 10.0156C39.0104 9.73438 39.5677 9.59375 40.2344 9.59375C41.2344 9.59375 41.974 9.85938 42.4531 10.3906C42.9427 10.9115 43.1875 11.8177 43.1875 13.1094C43.1875 13.3906 43.1771 13.724 43.1562 14.1094C43.1354 14.4948 43.1042 14.8385 43.0625 15.1406H41.125C41.1458 15.0365 41.1562 14.8542 41.1562 14.5938C41.1667 14.3333 41.1719 14.0729 41.1719 13.8125C41.1823 13.5521 41.1875 13.375 41.1875 13.2812C41.1875 12.5104 41.0573 11.9896 40.7969 11.7188C40.5365 11.4375 40.1198 11.2969 39.5469 11.2969C38.3281 11.2969 37.4948 11.7708 37.0469 12.7188V25ZM49.1094 25.1719C47.8385 25.1719 46.8958 24.9219 46.2812 24.4219C45.6771 23.9219 45.3229 23.1406 45.2188 22.0781C45.2083 21.8698 45.1927 21.6615 45.1719 21.4531C45.1615 21.2448 45.1667 21.0417 45.1875 20.8438C45.2604 19.9167 45.5521 19.1406 46.0625 18.5156C46.5729 17.8802 47.5417 17.3021 48.9688 16.7812C49.5521 16.5729 50.1667 16.3854 50.8125 16.2188C51.4583 16.0521 52.099 15.8906 52.7344 15.7344V12.8438C52.7344 12.3333 52.5417 11.9583 52.1562 11.7188C51.7708 11.4688 51.099 11.3438 50.1406 11.3438C49.3073 11.3438 48.6719 11.4479 48.2344 11.6562C47.8073 11.8646 47.5729 12.2448 47.5312 12.7969C47.5104 13.0573 47.5 13.4323 47.5 13.9219C47.5 14.401 47.5104 14.8073 47.5312 15.1406H45.5781C45.5573 14.8802 45.5365 14.5417 45.5156 14.125C45.4948 13.7083 45.5 13.3385 45.5312 13.0156C45.5833 11.8073 45.974 10.9375 46.7031 10.4062C47.4427 9.86458 48.6146 9.59375 50.2188 9.59375C51.8958 9.59375 53.0573 9.88542 53.7031 10.4688C54.3594 11.0521 54.6927 12.0104 54.7031 13.3438V25H52.7344V23.5625H52.2969C52.0365 24.0833 51.6615 24.4844 51.1719 24.7656C50.6927 25.0365 50.0052 25.1719 49.1094 25.1719ZM49.6094 23.4844C51.1094 23.4844 52.1458 23.0365 52.7188 22.1406V17.4062C52.2188 17.5104 51.7031 17.6354 51.1719 17.7812C50.651 17.9167 50.0365 18.1042 49.3281 18.3438C48.4844 18.6562 47.9219 19.0156 47.6406 19.4219C47.3594 19.8281 47.1979 20.3021 47.1562 20.8438C47.1667 21 47.1719 21.1719 47.1719 21.3594C47.1823 21.5365 47.1979 21.724 47.2188 21.9219C47.2917 22.4219 47.5417 22.8073 47.9688 23.0781C48.3958 23.349 48.9427 23.4844 49.6094 23.4844ZM59.5938 25H57.5781V9.79688H59.5938V11.2188H60.0781C60.401 10.6979 60.8229 10.2969 61.3438 10.0156C61.875 9.73438 62.5417 9.59375 63.3438 9.59375C64.5208 9.59375 65.3958 9.85417 65.9688 10.375C66.5417 10.8854 66.8281 11.7448 66.8281 12.9531V25H64.8281V12.7812C64.8281 12.2604 64.6615 11.8854 64.3281 11.6562C64.0052 11.4167 63.4792 11.2969 62.75 11.2969C62.0208 11.2969 61.3802 11.4219 60.8281 11.6719C60.276 11.9219 59.8646 12.2708 59.5938 12.7188V25ZM73.0312 25.1875C71.8542 25.1875 70.9792 24.9271 70.4062 24.4062C69.8333 23.8854 69.5312 23.026 69.5 21.8281C69.4583 20.974 69.4271 20.0365 69.4062 19.0156C69.3958 17.9948 69.3958 16.9583 69.4062 15.9062C69.4271 14.8542 69.4583 13.8698 69.5 12.9531C69.5312 11.7448 69.8385 10.8854 70.4219 10.375C71.0156 9.85417 71.8958 9.59375 73.0625 9.59375C73.9271 9.59375 74.6042 9.72917 75.0938 10C75.5938 10.2604 76.026 10.6667 76.3906 11.2188H76.7969V4.71875H78.7969V25H76.7969V23.5625H76.3438C75.9896 24.0833 75.5625 24.4844 75.0625 24.7656C74.5729 25.0469 73.8958 25.1875 73.0312 25.1875ZM73.6094 23.4844C75.1823 23.4844 76.2448 23.0104 76.7969 22.0625V12.7188C76.2552 11.7708 75.1979 11.2969 73.625 11.2969C72.8958 11.2969 72.3646 11.4167 72.0312 11.6562C71.7083 11.8854 71.5417 12.2604 71.5312 12.7812C71.4688 14.3438 71.4427 15.9323 71.4531 17.5469C71.4635 19.151 71.4896 20.6354 71.5312 22C71.5521 22.5104 71.7188 22.8854 72.0312 23.125C72.3542 23.3646 72.8802 23.4844 73.6094 23.4844ZM37.9219 49.2031C35.9635 49.2031 34.5469 48.8958 33.6719 48.2812C32.7969 47.6562 32.3333 46.6302 32.2812 45.2031C32.2292 44.4115 32.2083 43.6927 32.2188 43.0469C32.2396 42.401 32.276 41.6771 32.3281 40.875H34.4375C34.375 41.6771 34.3438 42.474 34.3438 43.2656C34.3542 44.0573 34.3854 44.8229 34.4375 45.5625C34.4896 46.1667 34.776 46.6146 35.2969 46.9062C35.8177 47.1875 36.6771 47.3281 37.875 47.3281C39.0521 47.3281 39.8854 47.1875 40.375 46.9062C40.875 46.6146 41.1562 46.1667 41.2188 45.5625C41.2708 44.8229 41.2917 44.1823 41.2812 43.6406C41.2812 43.0885 41.2604 42.4062 41.2188 41.5938C41.1771 40.9479 41.0052 40.4062 40.7031 39.9688C40.4115 39.5312 39.7552 39.2448 38.7344 39.1094L36.5 38.7031C35.3229 38.5052 34.4375 38.2188 33.8438 37.8438C33.2604 37.4583 32.8594 36.9688 32.6406 36.375C32.4323 35.7708 32.3073 35.0365 32.2656 34.1719C32.2344 33.599 32.224 32.9896 32.2344 32.3438C32.2448 31.6875 32.2656 31.0521 32.2969 30.4375C32.3177 29.0208 32.75 28.0104 33.5938 27.4062C34.4479 26.7917 35.875 26.4844 37.875 26.4844C39.7188 26.4844 41.0573 26.7917 41.8906 27.4062C42.7344 28.0208 43.1823 29.0365 43.2344 30.4531C43.2656 30.9427 43.276 31.5521 43.2656 32.2812C43.2552 33 43.2344 33.7448 43.2031 34.5156H41.0781C41.151 33.776 41.1875 33.0365 41.1875 32.2969C41.1875 31.5573 41.1615 30.8229 41.1094 30.0938C41.0677 29.5 40.7917 29.0625 40.2812 28.7812C39.7812 28.5 38.9635 28.3594 37.8281 28.3594C36.651 28.3594 35.8073 28.5 35.2969 28.7812C34.7969 29.0625 34.5208 29.5 34.4688 30.0938C34.4167 30.7604 34.3906 31.4375 34.3906 32.125C34.401 32.8125 34.4271 33.4948 34.4688 34.1719C34.5104 34.9323 34.6719 35.5156 34.9531 35.9219C35.2448 36.3177 35.9271 36.5781 37 36.7031L39.1875 37.0469C40.3646 37.224 41.25 37.5104 41.8438 37.9062C42.4375 38.3021 42.8385 38.8073 43.0469 39.4219C43.2656 40.026 43.3906 40.75 43.4219 41.5938C43.474 42.3646 43.4948 42.9896 43.4844 43.4688C43.474 43.9479 43.4427 44.526 43.3906 45.2031C43.3177 46.6302 42.8542 47.6562 42 48.2812C41.1562 48.8958 39.7969 49.2031 37.9219 49.2031ZM48.375 30.9688H46.3594V28.7188H48.375V30.9688ZM48.375 49H46.3438V33.7969H48.375V49ZM53.7031 49H51.6875V33.7969H53.7031V35.2188H54.0938C54.4479 34.6667 54.8594 34.2604 55.3281 34C55.8073 33.7292 56.4635 33.5938 57.2969 33.5938C58.974 33.5938 60.0052 34.1771 60.3906 35.3438H60.8125C61.1562 34.8021 61.5938 34.375 62.125 34.0625C62.6562 33.75 63.3385 33.5938 64.1719 33.5938C65.2865 33.5938 66.1198 33.8542 66.6719 34.375C67.224 34.8854 67.5 35.7448 67.5 36.9531V49H65.5V36.7812C65.4792 36.2604 65.3177 35.8854 65.0156 35.6562C64.7135 35.4167 64.2135 35.2969 63.5156 35.2969C62.1302 35.2969 61.1667 35.7865 60.625 36.7656V49H58.625V36.7812C58.6042 36.2604 58.4427 35.8854 58.1406 35.6562C57.8385 35.4167 57.349 35.2969 56.6719 35.2969C55.1927 35.2969 54.2031 35.7708 53.7031 36.7188V49ZM40.6562 73.2031C38.75 73.2031 37.3854 72.8958 36.5625 72.2812C35.7396 71.6667 35.3021 70.651 35.25 69.2344C35.0625 64.3073 35.0625 59.3802 35.25 54.4531C35.3021 53.1615 35.7448 52.1823 36.5781 51.5156C37.4115 50.8385 38.7604 50.5 40.625 50.5C42.5521 50.5 43.9531 50.8073 44.8281 51.4219C45.7135 52.0365 46.1771 53.0521 46.2188 54.4688C46.2396 54.8125 46.25 55.2396 46.25 55.75C46.25 56.25 46.2396 56.7552 46.2188 57.2656C46.2083 57.7656 46.1979 58.1927 46.1875 58.5469H44.0156C44.0365 57.8698 44.0469 57.1302 44.0469 56.3281C44.0573 55.526 44.0469 54.7865 44.0156 54.1094C44.0052 53.4844 43.7448 53.0365 43.2344 52.7656C42.7344 52.4948 41.8646 52.3594 40.625 52.3594C39.4896 52.3594 38.6771 52.4948 38.1875 52.7656C37.7083 53.0365 37.4531 53.4844 37.4219 54.1094C37.2552 59.2656 37.2552 64.4271 37.4219 69.5938C37.4531 70.2083 37.7083 70.6562 38.1875 70.9375C38.6771 71.2083 39.5 71.3438 40.6562 71.3438C41.9583 71.3438 42.8698 71.2083 43.3906 70.9375C43.9219 70.6562 44.2031 70.2083 44.2344 69.5938C44.2656 68.8646 44.2656 68.0833 44.2344 67.25C44.2135 66.4062 44.1875 65.6198 44.1562 64.8906H46.375C46.4271 65.6198 46.4583 66.3438 46.4688 67.0625C46.4792 67.7708 46.4583 68.4948 46.4062 69.2344C46.3438 70.651 45.8646 71.6667 44.9688 72.2812C44.0833 72.8958 42.6458 73.2031 40.6562 73.2031ZM51.3281 54.9688H49.3125V52.7188H51.3281V54.9688ZM51.3281 73H49.2969V57.7969H51.3281V73ZM59.4375 73.1875C57.8125 73.1875 56.7135 72.9167 56.1406 72.375C55.5781 71.8333 55.2969 70.9479 55.2969 69.7188V59.5469H53.7969V57.7969H55.3438V53.4844H57.3281V57.7969H60.7656V59.5469H57.3125V69.9375C57.3125 70.5104 57.4323 70.9062 57.6719 71.125C57.9115 71.3438 58.5156 71.4531 59.4844 71.4531C59.8802 71.4531 60.1823 71.4479 60.3906 71.4375C60.6094 71.4167 60.8594 71.401 61.1406 71.3906V73.0625C60.8906 73.1042 60.6198 73.1354 60.3281 73.1562C60.0365 73.1771 59.7396 73.1875 59.4375 73.1875ZM64.1719 78.2031C63.8385 78.2031 63.4375 78.1875 62.9688 78.1562C62.5104 78.125 62.1302 78.0938 61.8281 78.0625V76.3281C62.474 76.3802 63.2344 76.4062 64.1094 76.4062C65.0365 76.4062 65.6615 76.2917 65.9844 76.0625C66.3177 75.8438 66.5417 75.4531 66.6562 74.8906L67.1094 73H65L62.1875 57.7969H64.25L65.2969 65.0469L66.5 71.2656H67.4531L68.7344 65.0469L69.8438 57.7969H71.9219L68.6406 74.7344C68.4427 75.9635 68.026 76.849 67.3906 77.3906C66.7552 77.9323 65.6823 78.2031 64.1719 78.2031Z" fill="black"/>
</svg>
